<?xml version="1.0" encoding="utf-8"?>
<!-- Generator: Adobe Illustrator 24.0.0, SVG Export Plug-In . SVG Version: 6.00 Build 0)  -->
<svg version="1.1" id="Capa_1" xmlns="http://www.w3.org/2000/svg" xmlns:xlink="http://www.w3.org/1999/xlink" x="0px" y="0px"
	 viewBox="0 0 799.11 452.01" style="enable-background:new 0 0 799.11 452.01;" xml:space="preserve">
<style type="text/css">
	.st0{fill:#F95B5B;}
	.st1{fill:#CB3737;}
	.st2{fill:#F84848;}
</style>
<g>
	<g>
		<g>
			<path d="M119.3,351.91c0.63,1.51,1.26,3.03,1.87,4.56c0.61-1.58,1.25-3.13,1.9-4.66c0.66-1.53,1.36-3,2.1-4.4l28.11-52.6
				c0.35-0.66,0.71-1.18,1.08-1.58c0.37-0.4,0.79-0.68,1.25-0.85c0.46-0.17,0.97-0.28,1.54-0.33c0.57-0.04,1.25-0.06,2.04-0.06
				h13.33v94.96h-15.56v-61.34c0-1.14,0.03-2.39,0.1-3.75c0.07-1.36,0.16-2.74,0.3-4.14l-28.7,53.85c-0.66,1.23-1.51,2.18-2.56,2.86
				c-1.05,0.68-2.28,1.02-3.68,1.02h-2.43c-1.4,0-2.63-0.34-3.68-1.02c-1.05-0.68-1.9-1.63-2.56-2.86l-29.09-54.05
				c0.18,1.45,0.3,2.86,0.36,4.24c0.07,1.38,0.1,2.66,0.1,3.84v61.34H69.56v-94.96h13.33c0.79,0,1.47,0.02,2.04,0.06
				c0.57,0.04,1.08,0.16,1.54,0.33c0.46,0.18,0.89,0.46,1.28,0.85c0.39,0.39,0.77,0.92,1.12,1.58l28.37,52.73
				C117.98,348.95,118.67,350.4,119.3,351.91z"/>
		</g>
		<g>
			<path d="M240.96,386.95h-7.29c-1.53,0-2.74-0.23-3.61-0.69c-0.88-0.46-1.53-1.39-1.97-2.79l-1.45-4.79
				c-1.71,1.53-3.38,2.88-5.02,4.04c-1.64,1.16-3.34,2.13-5.09,2.92c-1.75,0.79-3.61,1.38-5.58,1.77c-1.97,0.4-4.16,0.59-6.57,0.59
				c-2.85,0-5.47-0.38-7.88-1.15s-4.48-1.92-6.21-3.46c-1.73-1.54-3.08-3.45-4.04-5.73c-0.96-2.28-1.45-4.94-1.45-7.97
				c0-2.55,0.67-5.06,2-7.54c1.33-2.48,3.56-4.72,6.67-6.72c3.11-2,7.25-3.66,12.41-4.98c5.16-1.32,11.58-1.98,19.24-1.98v-3.97
				c0-4.54-0.95-7.91-2.86-10.09c-1.9-2.18-4.67-3.27-8.31-3.27c-2.63,0-4.82,0.31-6.57,0.92c-1.75,0.61-3.27,1.3-4.56,2.07
				c-1.29,0.77-2.49,1.46-3.58,2.07c-1.09,0.61-2.3,0.92-3.61,0.92c-1.09,0-2.04-0.28-2.82-0.85c-0.79-0.57-1.42-1.27-1.9-2.1
				l-2.95-5.19c7.75-7.09,17.1-10.64,28.04-10.64c3.94,0,7.45,0.65,10.54,1.94c3.09,1.29,5.7,3.09,7.85,5.38
				c2.14,2.3,3.78,5.05,4.89,8.24c1.12,3.2,1.68,6.7,1.68,10.51V386.95z M209.44,376.84c1.66,0,3.19-0.15,4.6-0.45
				c1.4-0.3,2.73-0.75,3.97-1.36c1.25-0.6,2.45-1.35,3.61-2.23c1.16-0.88,2.33-1.93,3.51-3.14v-11.28c-4.73,0-8.68,0.3-11.85,0.89
				c-3.18,0.59-5.73,1.36-7.65,2.28c-1.93,0.93-3.29,2.01-4.1,3.24c-0.81,1.23-1.21,2.58-1.21,4.03c0,2.87,0.84,4.92,2.53,6.15
				C204.52,376.22,206.72,376.84,209.44,376.84z"/>
		</g>
		<g>
			<path d="M277.6,318.39c2.89,0,5.6,0.3,8.14,0.89c2.54,0.59,4.86,1.46,6.96,2.59h19.37v6.04c0,1.01-0.26,1.8-0.79,2.36
				c-0.53,0.57-1.42,0.96-2.69,1.18l-6.04,1.12c0.44,1.14,0.78,2.34,1.02,3.61c0.24,1.27,0.36,2.61,0.36,4.01
				c0,3.33-0.67,6.34-2,9.03c-1.34,2.69-3.17,4.98-5.52,6.86c-2.34,1.88-5.12,3.34-8.34,4.37S281.37,362,277.6,362
				c-2.54,0-5.01-0.24-7.42-0.72c-2.1,1.28-3.15,2.71-3.15,4.3c0,1.37,0.62,2.37,1.87,3.01c1.25,0.64,2.89,1.09,4.93,1.36
				c2.04,0.26,4.34,0.4,6.93,0.4s5.23,0.11,7.95,0.33c2.71,0.22,5.36,0.6,7.95,1.15c2.58,0.55,4.89,1.42,6.93,2.6
				s3.68,2.8,4.93,4.84c1.25,2.04,1.87,4.67,1.87,7.87c0,2.99-0.73,5.89-2.2,8.7c-1.47,2.81-3.59,5.31-6.37,7.51
				c-2.78,2.19-6.18,3.96-10.21,5.3c-4.03,1.34-8.62,2.01-13.79,2.01c-5.12,0-9.57-0.49-13.33-1.48c-3.77-0.98-6.89-2.3-9.36-3.94
				c-2.47-1.64-4.32-3.54-5.55-5.68c-1.23-2.15-1.84-4.38-1.84-6.7c0-3.15,0.96-5.8,2.89-7.95c1.93-2.14,4.6-3.85,8.01-5.12
				c-1.66-0.92-3-2.14-4.01-3.68c-1.01-1.53-1.51-3.52-1.51-5.98c0-1.01,0.17-2.05,0.53-3.12c0.35-1.07,0.89-2.13,1.61-3.19
				c0.72-1.05,1.63-2.04,2.73-2.99c1.09-0.94,2.39-1.78,3.87-2.53c-3.41-1.84-6.1-4.29-8.04-7.35c-1.95-3.06-2.92-6.65-2.92-10.77
				c0-3.33,0.67-6.34,2-9.03c1.33-2.69,3.19-4.99,5.58-6.9s5.21-3.36,8.47-4.37C270.19,318.89,273.75,318.39,277.6,318.39z
				 M295.4,389.78c0-1.34-0.39-2.44-1.18-3.28c-0.79-0.85-1.86-1.51-3.22-1.98c-1.36-0.47-2.94-0.82-4.76-1.04
				c-1.82-0.22-3.74-0.34-5.78-0.34s-4.14,0-6.3,0c-2.17,0-4.26-0.24-6.27-0.72c-1.84,1.01-3.32,2.2-4.43,3.58
				c-1.12,1.38-1.67,2.97-1.67,4.76c0,1.18,0.3,2.29,0.89,3.32c0.59,1.03,1.53,1.91,2.82,2.66c1.29,0.74,2.97,1.32,5.02,1.74
				c2.06,0.42,4.57,0.62,7.55,0.62c3.02,0,5.62-0.24,7.81-0.7c2.19-0.47,3.99-1.12,5.42-1.94c1.42-0.83,2.46-1.81,3.12-2.95
				C295.07,392.36,295.4,391.12,295.4,389.78z M277.6,351.62c2.01,0,3.76-0.27,5.25-0.82c1.49-0.55,2.73-1.3,3.71-2.26
				c0.99-0.96,1.73-2.12,2.23-3.48c0.5-1.36,0.75-2.85,0.75-4.47c0-3.33-1-5.97-2.99-7.91c-1.99-1.95-4.98-2.92-8.96-2.92
				c-3.98,0-6.97,0.97-8.96,2.92c-1.99,1.95-2.99,4.59-2.99,7.91c0,1.58,0.25,3.04,0.75,4.4c0.5,1.36,1.25,2.53,2.23,3.51
				c0.98,0.99,2.23,1.75,3.74,2.3C273.89,351.35,275.63,351.62,277.6,351.62z"/>
		</g>
		<g>
			<path d="M319.63,386.95v-67.38h9.92c2.1,0,3.48,0.99,4.14,2.95l1.05,4.99c1.18-1.31,2.42-2.52,3.71-3.61
				c1.29-1.09,2.67-2.04,4.14-2.82c1.47-0.79,3.04-1.41,4.73-1.87c1.68-0.46,3.54-0.69,5.55-0.69c4.25,0,7.74,1.15,10.48,3.45
				c2.74,2.3,4.78,5.35,6.14,9.16c1.05-2.23,2.36-4.15,3.94-5.75c1.58-1.6,3.31-2.9,5.19-3.91c1.88-1.01,3.89-1.75,6.01-2.23
				c2.12-0.48,4.26-0.72,6.4-0.72c3.72,0,7.03,0.57,9.92,1.71s5.32,2.8,7.29,4.99c1.97,2.19,3.47,4.86,4.5,8.01
				c1.03,3.15,1.54,6.76,1.54,10.84v42.88h-16.22v-42.88c0-4.29-0.94-7.52-2.82-9.69c-1.88-2.17-4.64-3.25-8.28-3.25
				c-1.66,0-3.21,0.28-4.63,0.85c-1.42,0.57-2.67,1.39-3.74,2.46c-1.07,1.07-1.92,2.42-2.53,4.04c-0.61,1.62-0.92,3.48-0.92,5.58
				v42.88h-16.29v-42.88c0-4.51-0.91-7.79-2.73-9.85c-1.82-2.06-4.5-3.09-8.05-3.09c-2.32,0-4.5,0.58-6.53,1.74
				c-2.04,1.16-3.93,2.75-5.68,4.76v49.32H319.63z"/>
		</g>
		<g>
			<path d="M480.4,386.95h-7.29c-1.53,0-2.74-0.23-3.61-0.69c-0.88-0.46-1.53-1.39-1.97-2.79l-1.45-4.79
				c-1.71,1.53-3.38,2.88-5.02,4.04c-1.64,1.16-3.34,2.13-5.09,2.92c-1.75,0.79-3.61,1.38-5.58,1.77c-1.97,0.4-4.16,0.59-6.57,0.59
				c-2.85,0-5.47-0.38-7.88-1.15s-4.48-1.92-6.21-3.46c-1.73-1.54-3.08-3.45-4.04-5.73c-0.96-2.28-1.45-4.94-1.45-7.97
				c0-2.55,0.67-5.06,2-7.54c1.33-2.48,3.56-4.72,6.67-6.72c3.11-2,7.25-3.66,12.41-4.98c5.16-1.32,11.58-1.98,19.24-1.98v-3.97
				c0-4.54-0.95-7.91-2.86-10.09c-1.9-2.18-4.67-3.27-8.31-3.27c-2.63,0-4.82,0.31-6.57,0.92c-1.75,0.61-3.27,1.3-4.56,2.07
				c-1.29,0.77-2.49,1.46-3.58,2.07c-1.09,0.61-2.3,0.92-3.61,0.92c-1.09,0-2.04-0.28-2.82-0.85s-1.42-1.27-1.9-2.1l-2.95-5.19
				c7.75-7.09,17.1-10.64,28.04-10.64c3.94,0,7.45,0.65,10.54,1.94c3.09,1.29,5.7,3.09,7.85,5.38c2.14,2.3,3.78,5.05,4.89,8.24
				c1.12,3.2,1.67,6.7,1.67,10.51V386.95z M448.88,376.84c1.66,0,3.19-0.15,4.6-0.45c1.4-0.3,2.73-0.75,3.97-1.36
				c1.25-0.6,2.45-1.35,3.61-2.23c1.16-0.88,2.33-1.93,3.51-3.14v-11.28c-4.73,0-8.68,0.3-11.85,0.89
				c-3.18,0.59-5.73,1.36-7.65,2.28c-1.93,0.93-3.29,2.01-4.1,3.24c-0.81,1.23-1.21,2.58-1.21,4.03c0,2.87,0.84,4.92,2.53,6.15
				C443.96,376.22,446.16,376.84,448.88,376.84z"/>
		</g>
		<g>
			<path d="M505.55,381.24h44.07v5.71h-50.77v-92.93h6.7V381.24z"/>
		</g>
		<g>
			<path d="M601.96,386.95c-1.31,0-2.12-0.61-2.43-1.84l-0.92-8.34c-1.8,1.75-3.58,3.33-5.35,4.73c-1.77,1.4-3.62,2.58-5.55,3.55
				c-1.93,0.96-4,1.7-6.24,2.2c-2.23,0.5-4.68,0.75-7.35,0.75c-2.23,0-4.4-0.33-6.5-0.98c-2.1-0.66-3.96-1.67-5.58-3.02
				c-1.62-1.36-2.92-3.1-3.91-5.22c-0.99-2.12-1.48-4.67-1.48-7.65c0-2.76,0.79-5.32,2.36-7.68c1.58-2.36,4.04-4.42,7.39-6.17
				c3.35-1.75,7.66-3.15,12.94-4.2c5.28-1.05,11.62-1.66,19.01-1.84v-6.83c0-6.04-1.3-10.69-3.91-13.96
				c-2.6-3.26-6.47-4.89-11.59-4.89c-3.15,0-5.84,0.44-8.05,1.31c-2.21,0.87-4.08,1.84-5.62,2.89c-1.53,1.05-2.78,2.02-3.74,2.89
				c-0.96,0.88-1.77,1.31-2.43,1.31c-0.88,0-1.53-0.4-1.97-1.18l-1.11-1.9c3.41-3.41,7-6,10.77-7.75c3.77-1.75,8.04-2.63,12.81-2.63
				c3.5,0,6.57,0.56,9.19,1.68c2.63,1.11,4.8,2.72,6.54,4.79c1.73,2.08,3.03,4.6,3.91,7.55c0.87,2.95,1.31,6.25,1.31,9.88v42.56
				H601.96z M575.69,383.47c2.54,0,4.87-0.27,7-0.82c2.12-0.55,4.09-1.31,5.91-2.3c1.82-0.99,3.51-2.16,5.09-3.51
				c1.58-1.36,3.13-2.82,4.66-4.4v-17.01c-6.22,0.18-11.57,0.65-16.06,1.41c-4.49,0.77-8.19,1.8-11.1,3.12
				c-2.91,1.31-5.05,2.88-6.43,4.7c-1.38,1.82-2.07,3.89-2.07,6.2c0,2.19,0.36,4.08,1.08,5.68c0.72,1.6,1.67,2.91,2.85,3.94
				c1.18,1.03,2.56,1.78,4.14,2.27S573.98,383.47,575.69,383.47z"/>
		</g>
		<g>
			<path d="M622.18,386.95V291.4h6.24l0.06,41.63c2.89-3.85,6.24-6.9,10.05-9.13c3.81-2.23,8.1-3.35,12.87-3.35
				c8.01,0,14.26,2.77,18.75,8.31s6.73,13.87,6.73,24.99c0,4.77-0.63,9.23-1.87,13.36c-1.25,4.14-3.09,7.73-5.52,10.77
				c-2.43,3.04-5.41,5.44-8.94,7.19c-3.53,1.75-7.6,2.63-12.2,2.63c-4.56,0-8.48-0.89-11.77-2.66c-3.29-1.77-6.12-4.39-8.48-7.85
				l-0.39,8.01c-0.13,1.1-0.72,1.64-1.75,1.64H622.18z M649.6,325.55c-4.34,0-8.27,1.12-11.77,3.35c-3.51,2.23-6.64,5.34-9.41,9.32
				v34.48c2.5,3.77,5.26,6.4,8.29,7.91c3.02,1.51,6.51,2.27,10.46,2.27c3.86,0,7.24-0.7,10.13-2.1c2.89-1.4,5.31-3.38,7.27-5.94
				c1.95-2.56,3.42-5.63,4.4-9.19c0.99-3.57,1.48-7.5,1.48-11.79c0-9.72-1.8-16.87-5.39-21.44
				C661.46,327.84,656.31,325.55,649.6,325.55z"/>
		</g>
		<g>
			<path d="M726.6,329.75c-0.31,0.61-0.79,0.92-1.45,0.92c-0.48,0-1.11-0.27-1.87-0.82c-0.77-0.55-1.77-1.16-3.02-1.84
				c-1.25-0.68-2.78-1.29-4.6-1.84c-1.82-0.55-4.04-0.82-6.67-0.82c-2.36,0-4.52,0.34-6.47,1.02c-1.95,0.68-3.61,1.58-4.99,2.72
				c-1.38,1.14-2.45,2.46-3.22,3.96c-0.77,1.51-1.15,3.09-1.15,4.75c0,2.05,0.52,3.76,1.58,5.11c1.05,1.35,2.43,2.51,4.14,3.47
				c1.71,0.96,3.65,1.79,5.81,2.49s4.39,1.4,6.66,2.1c2.28,0.7,4.5,1.48,6.66,2.33c2.17,0.85,4.11,1.92,5.81,3.19
				c1.71,1.27,3.09,2.82,4.14,4.66c1.05,1.84,1.58,4.07,1.58,6.7c0,2.85-0.52,5.49-1.54,7.95c-1.03,2.45-2.52,4.58-4.46,6.37
				c-1.95,1.79-4.35,3.22-7.19,4.27c-2.85,1.05-6.09,1.58-9.72,1.58c-4.6,0-8.56-0.73-11.89-2.2c-3.33-1.47-6.3-3.38-8.93-5.75
				l1.51-2.23c0.22-0.35,0.46-0.61,0.72-0.79c0.26-0.17,0.63-0.26,1.12-0.26c0.57,0,1.27,0.35,2.1,1.05
				c0.83,0.7,1.91,1.46,3.25,2.27c1.34,0.81,3,1.57,4.99,2.26c1.99,0.7,4.46,1.05,7.39,1.05c2.76,0,5.19-0.38,7.29-1.15
				c2.1-0.77,3.85-1.81,5.25-3.12c1.4-1.31,2.46-2.86,3.19-4.63c0.72-1.77,1.08-3.65,1.08-5.61c0-2.19-0.53-4-1.58-5.45
				c-1.05-1.45-2.43-2.67-4.14-3.68c-1.71-1.01-3.65-1.86-5.81-2.56c-2.17-0.7-4.4-1.4-6.7-2.1c-2.3-0.7-4.53-1.47-6.7-2.3
				c-2.17-0.83-4.1-1.88-5.81-3.15s-3.09-2.81-4.14-4.63c-1.05-1.82-1.58-4.08-1.58-6.8c0-2.32,0.5-4.55,1.51-6.7
				c1.01-2.14,2.44-4.03,4.3-5.65c1.86-1.62,4.12-2.91,6.8-3.87c2.67-0.96,5.67-1.45,9-1.45c3.98,0,7.52,0.58,10.61,1.73
				c3.09,1.15,5.92,2.92,8.5,5.29L726.6,329.75z"/>
		</g>
	</g>
	<g>
		<g>
			<path class="st0" d="M356.59,114.65L273.8,257.51c-1.33,2.3,0.33,5.17,2.98,5.17h39.26c2.46,0,4.73-1.31,5.96-3.43l60.17-103.83
				c1.24-2.14,1.24-4.77,0-6.91l-19.62-33.86C361.22,112.36,357.91,112.36,356.59,114.65z"/>
		</g>
		<g>
			<path class="st1" d="M481.04,186.23l-19.62,33.86c-1.24,2.14-1.24,4.77,0,6.91l18.72,32.3c1.23,2.13,3.5,3.43,5.96,3.43l39.26,0
				c2.65,0,4.31-2.88,2.98-5.17L487,186.23C485.67,183.94,482.37,183.94,481.04,186.23z"/>
		</g>
		<g>
			<path class="st2" d="M439.55,114.65l-61.11,105.44c-1.24,2.14-1.24,4.77,0,6.91l19.62,33.86c1.33,2.29,4.63,2.29,5.96,0
				l61.11-105.44c1.24-2.14,1.24-4.77,0-6.91l-19.62-33.86C444.19,112.36,440.88,112.36,439.55,114.65z"/>
		</g>
		<g>
			<path class="st1" d="M423.65,76.93l-19.62-33.86c-1.33-2.29-4.63-2.29-5.96,0l-19.62,33.86c-1.24,2.14-1.24,4.77,0,6.91
				l19.62,33.86c1.33,2.29,4.63,2.29,5.96,0l19.62-33.86C424.89,81.7,424.89,79.06,423.65,76.93z"/>
		</g>
	</g>
</g>
</svg>
